<?xml version="1.0" standalone="no"?>
<!DOCTYPE svg PUBLIC "-//W3C//DTD SVG 20010904//EN"
 "http://www.w3.org/TR/2001/REC-SVG-20010904/DTD/svg10.dtd">
<svg version="1.0" xmlns="http://www.w3.org/2000/svg"
 width="600.000000pt" height="600.000000pt" viewBox="0 0 600.000000 600.000000"
 preserveAspectRatio="xMidYMid meet">

<g transform="translate(0.000000,600.000000) scale(0.100000,-0.100000)"
fill="#000000" stroke="none">
<path d="M2685 4096 c-187 -37 -309 -122 -434 -305 -71 -105 -129 -217 -170
-335 -32 -90 -74 -249 -86 -321 l-6 -40 -97 0 c-85 0 -104 -4 -158 -28 -99
-46 -145 -107 -181 -237 -16 -59 -18 -111 -16 -550 3 -489 11 -651 39 -790 43
-208 141 -285 361 -285 l101 0 7 -65 c4 -36 19 -136 34 -223 25 -143 26 -159
12 -164 -162 -57 -235 -99 -265 -154 -17 -32 -18 -40 -6 -69 46 -110 361 -208
815 -252 169 -16 683 -16 850 0 420 42 727 131 799 233 51 74 -24 155 -201
219 l-63 23 6 41 c3 22 10 64 15 91 47 237 80 499 109 875 17 209 14 545 -5
675 -34 229 -43 308 -38 324 4 9 19 35 35 59 127 187 74 477 -110 604 -29 20
-65 64 -110 131 -180 277 -469 462 -832 532 -118 22 -317 28 -405 11z m331
-206 c257 -65 431 -149 587 -283 l37 -32 -197 0 c-266 0 -545 -19 -603 -41
-61 -24 -76 -38 -106 -103 -63 -139 -73 -400 -20 -556 70 -204 178 -308 381
-367 71 -21 101 -23 275 -23 212 0 301 15 423 69 32 14 57 24 57 22 0 -1 9
-65 19 -142 32 -230 38 -198 -64 -321 -49 -60 -146 -170 -215 -247 l-125 -139
-145 7 c-80 3 -218 9 -308 12 l-163 7 -49 63 c-262 328 -431 719 -500 1154
-12 74 -31 182 -42 238 -21 113 -20 132 24 272 39 126 155 323 216 367 43 31
119 59 172 62 24 1 46 4 49 7 2 2 43 4 91 4 64 0 119 -8 206 -30z m629 -490
c121 -12 204 -41 248 -88 25 -27 97 -155 97 -173 0 -23 -158 -69 -355 -104
-172 -31 -395 -35 -472 -9 -54 18 -143 71 -143 85 0 5 -22 56 -50 113 -27 57
-50 115 -50 129 0 25 2 25 94 32 308 23 494 28 631 15z m-1685 -590 l0 -110
-47 0 c-33 0 -69 -10 -111 -30 -35 -17 -66 -30 -69 -30 -6 0 6 252 11 258 5 5
126 19 174 21 l42 1 0 -110z m1236 -1708 c0 -48 4 -122 8 -164 l8 -78 -78 0
-79 0 -1 165 0 164 65 3 c36 2 68 2 71 0 3 -2 5 -43 6 -90z"/>
</g>
</svg>
